<svg width="12" height="7" viewBox="0 0 12 7" fill="none" xmlns="http://www.w3.org/2000/svg">
<path d="M10.998 0.325987L6 5.19799L1.002 0.325987C0.912702 0.238765 0.792827 0.189934 0.668 0.189934C0.543173 0.189934 0.423298 0.238765 0.334 0.325987C0.290762 0.368352 0.256412 0.418917 0.232962 0.474723C0.209512 0.53053 0.197433 0.590454 0.197433 0.650987C0.197433 0.71152 0.209512 0.771444 0.232962 0.82725C0.256412 0.883057 0.290762 0.933623 0.334 0.975987L5.651 6.15999C5.74437 6.251 5.86961 6.30194 6 6.30194C6.13039 6.30194 6.25563 6.251 6.349 6.15999L11.666 0.976987C11.7095 0.934591 11.7442 0.883901 11.7678 0.82791C11.7914 0.771919 11.8036 0.711761 11.8036 0.650987C11.8036 0.590213 11.7914 0.530055 11.7678 0.474064C11.7442 0.418073 11.7095 0.367383 11.666 0.324987C11.5767 0.237765 11.4568 0.188934 11.332 0.188934C11.2072 0.188934 11.0873 0.237765 10.998 0.324987V0.325987Z" fill="#2B2F42"/>
</svg>
